<?xml version="1.0" encoding="UTF-8"?>
<svg width="20px" height="22px" viewBox="0 0 20 22" version="1.1" xmlns="http://www.w3.org/2000/svg" xmlns:xlink="http://www.w3.org/1999/xlink">
    <!-- Generator: Sketch 53.2 (72643) - https://sketchapp.com -->
    <title>ic_medium_share</title>
    <desc>Created with Sketch.</desc>
    <g id="Symbols" stroke="none" stroke-width="1" fill="none" fill-rule="evenodd">
        <g id="Icons/medium/share" transform="translate(-1.000000, -1.000000)" fill="#000000">
            <path d="M8.84097837,13.1203595 L14.1006052,16.244356 C14.8293427,15.4778456 15.858868,15 17,15 C19.209139,15 21,16.790861 21,19 C21,21.209139 19.209139,23 17,23 C14.790861,23 13,21.209139 13,19 C13,18.3826569 13.1398521,17.7979781 13.3896027,17.275917 L8.3040376,14.2553059 C7.58360783,15.3087073 6.37253395,16 5,16 C2.790861,16 1,14.209139 1,12 C1,9.790861 2.790861,8 5,8 C6.35243424,8 7.54810271,8.67119407 8.27207256,9.69864936 L13.3657183,6.67323861 C13.130953,6.16417182 13,5.59737876 13,5 C13,2.790861 14.790861,1 17,1 C19.209139,1 21,2.790861 21,5 C21,7.209139 19.209139,9 17,9 C15.8382768,9 14.7922245,8.50475384 14.061451,7.71386931 L8.82446249,10.8244196 C8.93858166,11.196123 9,11.590889 9,12 C9,12.3889131 8.94449644,12.7648626 8.84097837,13.1203595 Z M5,14.75 C6.51878306,14.75 7.75,13.5187831 7.75,12 C7.75,10.4812169 6.51878306,9.25 5,9.25 C3.48121694,9.25 2.25,10.4812169 2.25,12 C2.25,13.5187831 3.48121694,14.75 5,14.75 Z M17,7.75 C18.5187831,7.75 19.75,6.51878306 19.75,5 C19.75,3.48121694 18.5187831,2.25 17,2.25 C15.4812169,2.25 14.25,3.48121694 14.25,5 C14.25,6.51878306 15.4812169,7.75 17,7.75 Z M17,21.75 C18.5187831,21.75 19.75,20.5187831 19.75,19 C19.75,17.4812169 18.5187831,16.25 17,16.25 C15.4812169,16.25 14.25,17.4812169 14.25,19 C14.25,20.5187831 15.4812169,21.75 17,21.75 Z" id="ic_medium_share"></path>
        </g>
    </g>
</svg>