<?xml version="1.0" encoding="UTF-8"?>
<svg width="13px" height="10px" viewBox="0 0 13 10" version="1.1" xmlns="http://www.w3.org/2000/svg" xmlns:xlink="http://www.w3.org/1999/xlink">
    <!-- Generator: Sketch 53.2 (72643) - https://sketchapp.com -->
    <title>ic_small_twitter</title>
    <desc>Created with Sketch.</desc>
    <g id="Symbols" stroke="none" stroke-width="1" fill="none" fill-rule="evenodd">
        <g id="Icons/small/twitter" transform="translate(-1.000000, -3.000000)" fill="#000000">
            <path d="M14,3.00571924 C13.4341366,3.38215793 12.8076092,3.67007313 12.1445455,3.85837721 C11.4155761,3.06787845 10.240855,2.79066793 9.20304814,3.16424309 C8.1652413,3.53781825 7.48510925,4.48271281 7.5,5.53025558 L7.5,6.08754836 C5.3908474,6.13912715 3.39437859,5.19140512 2.18181818,3.56301203 C2.18181818,3.56301203 -0.181818182,8.57864713 5.13636364,10.8078183 C3.91940265,11.5868948 2.46968363,11.9775365 1,11.9224039 C6.31818182,14.7088678 12.8181818,11.9224039 12.8181818,5.51353679 C12.8176377,5.35830491 12.8018122,5.20345596 12.7709091,5.05098378 C13.3739928,4.49006473 13.7995798,3.78186803 14,3.00571924 Z" id="ic_small_twitter"></path>
        </g>
    </g>
</svg>