<?xml version="1.0" encoding="UTF-8"?>
<svg width="12px" height="12px" viewBox="0 0 12 12" version="1.1" xmlns="http://www.w3.org/2000/svg" xmlns:xlink="http://www.w3.org/1999/xlink">
    <!-- Generator: Sketch 53.2 (72643) - https://sketchapp.com -->
    <title>ic_small_instagram</title>
    <desc>Created with Sketch.</desc>
    <g id="Symbols" stroke="none" stroke-width="1" fill="none" fill-rule="evenodd">
        <g id="Icons/small/instagram" transform="translate(-2.000000, -2.000000)" fill="#000000">
            <path d="M9.72175901,9.72175949 C10.1973869,9.24613374 10.4351966,8.67221861 10.4351966,8.00000131 C10.4351966,7.32778187 10.1973869,6.75386674 9.72175901,6.27824099 C9.24613326,5.80261311 8.67221813,5.56480343 7.99999869,5.56480343 C7.32778139,5.56480343 6.75386626,5.80261311 6.27824051,6.27824099 C5.80261263,6.75386674 5.56480295,7.32778187 5.56480295,8.00000131 C5.56480295,8.67221861 5.80261263,9.24613374 6.27824051,9.72175949 C6.75386626,10.1973874 7.32778139,10.435197 7.99999869,10.435197 C8.67221813,10.435197 9.24613326,10.1973874 9.72175901,9.72175949 Z M10.6539825,5.34601751 C11.3832774,6.07531032 11.7479185,6.95996378 11.7479185,8.00000131 C11.7479185,9.0400367 11.3832774,9.92469016 10.6539825,10.653983 C9.92468968,11.3832779 9.04003622,11.747919 7.99999869,11.747919 C6.9599633,11.747919 6.07530984,11.3832779 5.34601703,10.653983 C4.61672208,9.92469016 4.252081,9.0400367 4.252081,8.00000131 C4.252081,6.95996378 4.61672208,6.07531032 5.34601703,5.34601751 C6.07530984,4.61672256 6.9599633,4.25208148 7.99999869,4.25208148 C9.04003622,4.25208148 9.92468968,4.61672256 10.6539825,5.34601751 Z M12.5184295,3.48157053 C12.689656,3.65279495 12.7752672,3.85889838 12.7752672,4.09988081 C12.7752672,4.34086538 12.689656,4.54696667 12.5184295,4.71819322 C12.347205,4.88941977 12.1411016,4.97503091 11.9001192,4.97503091 C11.6591346,4.97503091 11.4530333,4.88941977 11.2818068,4.71819322 C11.1105802,4.54696667 11.0249691,4.34086538 11.0249691,4.09988081 C11.0249691,3.85889838 11.1105802,3.65279495 11.2818068,3.48157053 C11.4530333,3.31034399 11.6591346,3.22473284 11.9001192,3.22473284 C12.1411016,3.22473284 12.347205,3.31034399 12.5184295,3.48157053 Z M8.72294813,2.00713604 C8.28537201,2.00713604 8.04439171,2.00713604 7.99999869,2.00713604 C7.95560781,2.00713604 7.71304219,2.00555072 7.27229545,2.00237797 C6.83154658,1.99920734 6.49702857,1.99920734 6.26872651,2.00237797 C6.04042657,2.00555072 5.73444419,2.0150626 5.35077296,2.03091573 C4.96709961,2.04677098 4.64050816,2.07847937 4.37098584,2.12604088 C4.10146565,2.17360452 3.87475316,2.23226322 3.69084411,2.30202123 C3.37376027,2.4288569 3.09473034,2.61276168 2.85374577,2.85374625 C2.61276142,3.09473081 2.42885514,3.37376075 2.30202139,3.69084459 C2.23226274,3.87475363 2.17360297,4.10146613 2.1260404,4.37098845 C2.07847782,4.64050864 2.04676987,4.96710222 2.03091546,5.35077344 C2.01506127,5.73444467 2.00554897,6.04042705 2.00237813,6.26872912 C1.99920729,6.49702905 1.99920729,6.83154706 2.00237813,7.27229593 C2.00554897,7.71304267 2.00713428,7.95560829 2.00713428,8.00000131 C2.00713428,8.04439219 2.00554897,8.28695781 2.00237813,8.72770455 C1.99920729,9.16845342 1.99920729,9.50297143 2.00237813,9.73127349 C2.00554897,9.95957343 2.01506127,10.2655558 2.03091546,10.649227 C2.04676987,11.0329004 2.07847782,11.3594918 2.1260404,11.6290142 C2.17360297,11.8985344 2.23226274,12.1252468 2.30202139,12.3091559 C2.42885514,12.6262397 2.61276142,12.9052697 2.85374577,13.1462542 C3.09473034,13.3872386 3.37376027,13.5711449 3.69084411,13.6979786 C3.87475316,13.7677373 4.10146565,13.826397 4.37098584,13.8739596 C4.64050816,13.9215222 4.96709961,13.9532301 5.35077296,13.9690845 C5.73444419,13.9849387 6.04042657,13.994451 6.26872651,13.9976219 C6.49702857,14.0007927 6.83154658,14.0007927 7.27229545,13.9976219 C7.71304219,13.994451 7.95560781,13.9928657 7.99999869,13.9928657 C8.04439171,13.9928657 8.28695733,13.994451 8.72770407,13.9976219 C9.16845294,14.0007927 9.50297095,14.0007927 9.73127088,13.9976219 C9.95957295,13.994451 10.2655553,13.9849387 10.6492266,13.9690845 C11.0328978,13.9532301 11.3594914,13.9215222 11.6290116,13.8739596 C11.8985339,13.826397 12.1252464,13.7677373 12.3091554,13.6979786 C12.6262392,13.5711449 12.9052692,13.3872386 13.1462538,13.1462542 C13.3872383,12.9052697 13.5711431,12.6262397 13.6979788,12.3091559 C13.7677368,12.1252468 13.8263955,11.8985344 13.8739591,11.6290142 C13.9215206,11.3594918 13.953229,11.0329004 13.9690843,10.649227 C13.9849374,10.2655558 13.9944493,9.95957343 13.997622,9.73127349 C14.0007927,9.50297143 14.0007927,9.16845342 13.997622,8.72770455 C13.9944493,8.28695781 13.992864,8.04439219 13.992864,8.00000131 C13.992864,7.95560829 13.9944493,7.71304267 13.997622,7.27229593 C14.0007927,6.83154706 14.0007927,6.49702905 13.997622,6.26872912 C13.9944493,6.04042705 13.9849374,5.73444467 13.9690843,5.35077344 C13.953229,4.96710222 13.9215206,4.64050864 13.8739591,4.37098845 C13.8263955,4.10146613 13.7677368,3.87475363 13.6979788,3.69084459 C13.5711431,3.37376075 13.3872383,3.09473081 13.1462538,2.85374625 C12.9052692,2.61276168 12.6262392,2.4288569 12.3091554,2.30202123 C12.1252464,2.23226322 11.8985339,2.17360452 11.6290116,2.12604088 C11.3594914,2.07847937 11.0328978,2.04677098 10.6492266,2.03091573 C10.2655553,2.0150626 9.95957295,2.00555072 9.73127088,2.00237797 C9.50297095,1.99920734 9.16686763,2.00079266 8.72294813,2.00713604 Z" id="ic_small_instagram"></path>
        </g>
    </g>
</svg>